<?xml version="1.0" standalone="no"?>
<!DOCTYPE svg PUBLIC "-//W3C//DTD SVG 20010904//EN"
 "http://www.w3.org/TR/2001/REC-SVG-20010904/DTD/svg10.dtd">
<svg version="1.0" xmlns="http://www.w3.org/2000/svg"
 width="342.000000pt" height="342.000000pt" viewBox="0 0 342.000000 342.000000"
 preserveAspectRatio="xMidYMid meet">
<metadata>
Created by potrace 1.11, written by Peter Selinger 2001-2013
</metadata>
<g transform="translate(0.000000,342.000000) scale(0.100000,-0.100000)"
fill="#000000" stroke="none">
<path d="M1859 2716 c-3 -3 -95 -15 -121 -16 -15 0 -8 -27 82 -315 50 -160 92
-294 94 -300 27 -98 41 -138 50 -141 6 -2 58 -13 116 -24 129 -24 516 -98 550
-106 121 -26 223 6 300 93 l42 48 -32 -49 c-76 -113 -155 -166 -335 -221 -66
-20 -167 -51 -225 -69 -219 -69 -285 -90 -295 -92 -5 -2 -37 -11 -69 -21 l-59
-19 -114 -364 c-62 -201 -112 -370 -111 -377 3 -13 210 52 343 107 449 187
752 477 874 836 39 116 69 357 47 392 -4 6 -5 12 -1 12 3 0 1 10 -6 21 -6 13
-7 19 -1 15 18 -11 -47 144 -83 199 -74 111 -196 217 -320 278 -69 34 -205 79
-275 91 -19 3 -46 9 -60 12 -28 7 -384 16 -391 10z m1128 -698 c-3 -8 -6 -5
-6 6 -1 11 2 17 5 13 3 -3 4 -12 1 -19z"/>
<path d="M1530 2641 c-358 -120 -596 -260 -798 -470 -159 -166 -274 -387 -308
-593 -13 -74 -16 -228 -5 -228 6 0 11 -5 11 -11 0 -5 -4 -8 -8 -5 -7 4 -8 -28
-2 -44 1 -3 2 -8 1 -12 0 -5 4 -8 11 -8 6 0 9 -3 5 -6 -19 -20 77 -190 152
-267 187 -195 426 -286 766 -292 132 -2 322 8 332 19 2 1 -31 112 -73 247 -42
134 -80 255 -83 269 -4 14 -22 73 -40 132 l-34 106 -91 17 c-50 9 -147 28
-216 41 -69 14 -141 27 -160 30 -19 3 -84 16 -145 29 -60 12 -133 22 -162 21
-67 -3 -152 -45 -199 -99 -30 -33 -33 -35 -18 -11 45 73 128 148 204 183 39
17 214 73 675 213 55 17 103 33 107 37 4 4 56 164 116 356 60 193 112 360 116
373 4 12 4 22 -1 22 -4 -1 -73 -23 -153 -49z m-1103 -1263 c-3 -7 -5 -2 -5 12
0 14 2 19 5 13 2 -7 2 -19 0 -25z"/>
</g>
</svg>
